<svg viewBox="0 0 600 400" xmlns="http://www.w3.org/2000/svg">
  <defs>
    <linearGradient id="mfGrad" x1="0%" y1="0%" x2="100%" y2="100%">
      <stop offset="0%" style="stop-color:#3b82f6;stop-opacity:1" />
      <stop offset="50%" style="stop-color:#1e40af;stop-opacity:1" />
      <stop offset="100%" style="stop-color:#0c1e3d;stop-opacity:1" />
    </linearGradient>
  </defs>
  <rect width="600" height="400" fill="url(#mfGrad)"/>
  
  <!-- Shopping bag icons -->
  <g opacity="0.85">
    <rect x="100" y="80" width="60" height="100" fill="#fbbf24" rx="8"/>
    <path d="M 110 80 Q 110 50 130 50 Q 150 50 150 80" fill="#fbbf24" stroke="#f59e0b" stroke-width="3"/>
    <line x1="115" y1="110" x2="145" y2="110" stroke="#f59e0b" stroke-width="2"/>
    <line x1="115" y1="140" x2="145" y2="140" stroke="#f59e0b" stroke-width="2"/>
    
    <rect x="280" y="100" width="55" height="90" fill="#fff" rx="6" opacity="0.9"/>
    <path d="M 290 100 Q 290 70 307.5 70 Q 325 70 325 100" fill="#fff" stroke="#3b82f6" stroke-width="2.5"/>
    <circle cx="302" cy="130" r="3" fill="#3b82f6"/>
    <circle cx="318" cy="125" r="3" fill="#3b82f6"/>
    
    <path d="M 420 90 Q 420 60 450 60 Q 480 60 480 90 L 480 165 Q 480 180 465 180 L 435 180 Q 420 180 420 165 Z" fill="#10b981" stroke="#059669" stroke-width="2.5"/>
    <line x1="435" y1="100" x2="465" y2="100" stroke="#059669" stroke-width="2"/>
  </g>
  
  <!-- Title -->
  <text x="300" y="290" font-family="Arial, sans-serif" font-size="56" font-weight="bold" fill="#fff" text-anchor="middle">MoreFix WebStore</text>
  
  <!-- Subtitle -->
  <text x="300" y="330" font-family="Arial, sans-serif" font-size="20" fill="#e0e7ff" text-anchor="middle" opacity="0.9">E-commerce Platform</text>
</svg>